HIERARCHY
ROOT Hips
{
	OFFSET 0.00 0.00 0.00
	CHANNELS 6 Xposition Yposition Zposition Xrotation Yrotation Zrotation
	JOINT Spine
	{
		OFFSET 0.00000 1.70439 2.55658
		CHANNELS 3 Xrotation Yrotation Zrotation
		JOINT Spine1
		{
			OFFSET 0.00000 0.59193 3.35699
			CHANNELS 3 Xrotation Yrotation Zrotation
			JOINT Spine2
			{
				OFFSET 0.00000 0.29710 3.39581
				CHANNELS 3 Xrotation Yrotation Zrotation
				JOINT Spine3
				{
					OFFSET 0.00000 0.00000 3.40878
					CHANNELS 3 Xrotation Yrotation Zrotation
					JOINT Neck
					{
						OFFSET 0.00000 -1.27828 8.94804
						CHANNELS 3 Xrotation Yrotation Zrotation
						JOINT Head
						{
							OFFSET 0.00000 -0.81390 4.61586
							CHANNELS 3 Xrotation Yrotation Zrotation
							End Site
							{
								OFFSET 0.00000 0.00001 5.51796
							}
						}
					}
					JOINT RightShoulder
					{
						OFFSET -1.18875 -1.98124 6.41925
						CHANNELS 3 Xrotation Yrotation Zrotation
						JOINT RightArm
						{
							OFFSET -5.90412 0.00000 0.00000
							CHANNELS 3 Xrotation Yrotation Zrotation
							JOINT RightForeArm
							{
								OFFSET -11.94674 0.00000 0.00000
								CHANNELS 3 Xrotation Yrotation Zrotation
								JOINT RightHand
								{
									OFFSET -10.17720 0.00000 0.00000
									CHANNELS 3 Xrotation Yrotation Zrotation
									JOINT RightHandEnd
									{
										OFFSET -2.84518 0.00000 0.00000
										CHANNELS 3 Xrotation Yrotation Zrotation
										End Site
										{
											OFFSET -2.84518 0.00000 0.00000
										}
									}
									JOINT RightHandThumb1
									{
										OFFSET -1.13807 -1.89679 -0.75871
										CHANNELS 3 Yrotation Xrotation Zrotation
										End Site
										{
											OFFSET -2.74823 -0.73639 0.00000
										}
									}
								}
							}
						}
					}
					JOINT LeftShoulder
					{
						OFFSET 1.18875 -1.98124 6.41925
						CHANNELS 3 Xrotation Yrotation Zrotation
						JOINT LeftArm
						{
							OFFSET 5.90412 0.00000 0.00000
							CHANNELS 3 Xrotation Yrotation Zrotation
							JOINT LeftForeArm
							{
								OFFSET 11.94674 0.00000 0.00000
								CHANNELS 3 Xrotation Yrotation Zrotation
								JOINT LeftHand
								{
									OFFSET 10.17720 0.00000 0.00000
									CHANNELS 3 Xrotation Yrotation Zrotation
									JOINT LeftHandEnd
									{
										OFFSET 2.84518 0.00000 0.00000
										CHANNELS 3 Xrotation Yrotation Zrotation
										End Site
										{
											OFFSET 2.84518 0.00000 0.00000
										}
									}
									JOINT LeftHandThumb1
									{
										OFFSET 1.13807 -1.89679 -0.75871
										CHANNELS 3 Yrotation Xrotation Zrotation
										End Site
										{
											OFFSET 2.74823 -0.73639 0.00000
										}
									}
								}
							}
						}
					}
				}
			}
		}
	}
	JOINT RightUpLeg
	{
		OFFSET -3.52662 0.00000 -1.03025
		CHANNELS 3 Xrotation Yrotation Zrotation
		JOINT RightLeg
		{
			OFFSET 0.00001 0.00000 -17.80159
			CHANNELS 3 Xrotation Yrotation Zrotation
			JOINT RightFoot
			{
				OFFSET 0.00001 0.00000 -16.85992
				CHANNELS 3 Xrotation Yrotation Zrotation
				JOINT RightToeBase
				{
					OFFSET 0.00000 -5.42953 -1.97619
					CHANNELS 3 Xrotation Yrotation Zrotation
					End Site
					{
						OFFSET 0.00000 -2.85300 -0.00000
					}
				}
			}
		}
	}
	JOINT LeftUpLeg
	{
		OFFSET 3.52662 0.00000 -1.03025
		CHANNELS 3 Xrotation Yrotation Zrotation
		JOINT LeftLeg
		{
			OFFSET 0.00001 0.00000 -17.80159
			CHANNELS 3 Xrotation Yrotation Zrotation
			JOINT LeftFoot
			{
				OFFSET 0.00001 0.00000 -16.85992
				CHANNELS 3 Xrotation Yrotation Zrotation
				JOINT LeftToeBase
				{
					OFFSET 0.00000 -5.42953 -1.97619
					CHANNELS 3 Xrotation Yrotation Zrotation
					End Site
					{
						OFFSET 0.00000 -2.85300 -0.00000
					}
				}
			}
		}
	}
}
MOTION
Frames: 6
Frame Time: 0.008342
 -1.0456 -3.8279 37.5426 1.1005 0.2365 -177.5379 1.0896 -0.3263 -0.5627 0.4398 0.5953 -0.0665 2.4508 -2.2022 -2.0587 0.3816 0.1401 0.4003 2.3986 0.1677 -2.1391 -0.2520 -0.2589 0.3319 16.4373 -25.2004 1.8744 14.9123 -39.9940 23.9763 0.0000 0.0000 29.6411 0.0851 29.9225 1.0326 -0.0000 0.0000 -0.0000 -0.0000 -0.0000 0.0000 12.8283 13.5011 -5.2710 42.0183 39.1812 -43.1429 -0.0000 -0.0000 -31.3863 -4.3817 -17.7507 -2.8234 -0.0000 0.0000 -0.0000 -0.0000 0.0000 0.0000 -4.3660 6.4108 -23.5654 23.9072 0.0000 0.0000 -18.5485 -4.1130 -7.8054 0.4202 0.0000 0.0000 -7.0921 -5.3844 5.7349 27.0397 0.0000 0.0000 -15.8108 7.0883 5.7499 -3.4023 0.0000 -0.0000
 -1.0444 -3.8456 37.4628 1.0785 0.2062 -177.5401 1.2100 -0.2605 -0.5360 0.5334 0.5968 -0.0794 2.3011 -2.2296 -2.0803 0.3149 0.1270 0.4143 2.3331 0.1208 -2.1884 -0.2302 -0.2662 0.3742 16.0762 -25.1772 1.7567 13.4918 -39.9041 22.6239 0.0000 0.0000 29.8314 0.0706 30.4280 1.5596 0.0000 -0.0000 -0.0000 -0.0000 -0.0000 -0.0000 12.8210 13.1945 -5.3814 41.4935 39.4438 -42.7365 -0.0000 -0.0000 -31.5984 -4.3473 -17.2199 -3.1015 0.0000 0.0000 0.0000 -0.0000 0.0000 0.0000 -5.1951 6.5179 -22.6379 25.4605 0.0000 0.0000 -19.2522 -4.0815 -8.7317 0.3735 0.0000 0.0000 -7.8770 -5.4936 5.7440 28.5375 0.0000 0.0000 -16.3865 7.0681 5.7958 -3.3564 0.0000 -0.0000
 -1.0453 -3.8661 37.3713 1.0919 0.2114 -177.5364 1.3643 -0.1642 -0.5151 0.6509 0.6285 -0.0743 2.1548 -2.2783 -2.1294 0.2446 0.1118 0.4368 2.2399 0.0842 -2.2401 -0.2256 -0.2608 0.4263 15.6411 -25.1538 1.6245 11.6909 -39.7770 20.9421 0.0000 0.0000 30.0908 -0.0445 30.9564 2.0670 -0.0000 0.0000 -0.0000 0.0000 -0.0000 -0.0000 12.8281 12.8688 -5.5152 40.8821 39.7200 -42.2582 -0.0000 -0.0000 -31.8591 -4.2604 -16.7032 -3.3507 0.0000 0.0000 0.0000 -0.0000 0.0000 0.0000 -6.0784 6.6694 -21.6954 27.1889 0.0000 0.0000 -20.0037 -4.0178 -9.6870 0.3027 0.0000 0.0000 -8.6861 -5.5601 5.6546 30.1525 0.0000 0.0000 -16.9817 7.0692 5.8959 -3.3914 0.0000 -0.0000
 -1.0472 -3.8902 37.2667 1.1377 0.2356 -177.5263 1.5518 -0.0325 -0.4956 0.7839 0.6465 -0.0809 2.0255 -2.3210 -2.1762 0.1704 0.0915 0.4575 2.1138 0.0587 -2.2879 -0.2468 -0.2417 0.4933 15.1012 -25.1147 1.5015 9.4633 -39.6097 18.8464 0.0000 0.0000 30.4779 -0.2608 31.4731 2.5211 -0.0000 0.0000 0.0000 -0.0000 -0.0000 -0.0000 12.8429 12.5296 -5.6786 40.1767 40.0007 -41.6797 -0.0000 -0.0000 -32.1918 -4.1266 -16.2201 -3.5631 -0.0000 -0.0000 -0.0000 0.0000 0.0000 -0.0000 -7.0059 6.8384 -20.7546 29.0592 0.0000 0.0000 -20.7751 -3.9181 -10.6552 0.1867 0.0000 0.0000 -9.5346 -5.6032 5.4625 31.9028 0.0000 0.0000 -17.5765 7.1115 6.0302 -3.5602 0.0000 -0.0000
 -1.0502 -3.9179 37.1483 1.2296 0.2767 -177.5118 1.7857 0.1210 -0.4828 0.9375 0.6733 -0.0828 1.9077 -2.3707 -2.2368 0.0978 0.0694 0.4790 1.9479 0.0419 -2.3271 -0.3000 -0.2077 0.5814 14.4803 -25.0435 1.3908 6.8232 -39.3472 16.3917 0.0000 0.0000 30.9971 -0.6326 31.9838 2.9174 -0.0000 -0.0000 0.0000 -0.0000 -0.0000 -0.0000 12.8677 12.1839 -5.8727 39.3754 40.2598 -40.9870 -0.0000 -0.0000 -32.6172 -3.9578 -15.7980 -3.7312 -0.0000 -0.0000 -0.0000 0.0000 -0.0000 0.0000 -7.9461 7.0169 -19.8358 31.0357 0.0000 0.0000 -21.5433 -3.7845 -11.6131 0.0095 0.0000 0.0000 -10.4059 -5.6267 5.1774 33.7812 0.0000 0.0000 -18.1423 7.2139 6.1732 -3.9067 0.0000 -0.0000
 -1.0533 -3.9498 37.0152 1.3629 0.3108 -177.4938 2.0657 0.2787 -0.4782 1.1039 0.6878 -0.0936 1.8077 -2.4087 -2.2909 0.0265 0.0453 0.4938 1.7400 0.0301 -2.3516 -0.3908 -0.1597 0.6925 13.7657 -24.9205 1.3013 3.7964 -38.9535 13.5939 0.0000 0.0000 31.6712 -1.1791 32.4712 3.2319 0.0000 0.0000 -0.0000 0.0000 0.0000 -0.0000 12.8825 11.8445 -6.0977 38.4809 40.4832 -40.1452 -0.0000 -0.0000 -33.1614 -3.7539 -15.4484 -3.8502 0.0000 -0.0000 -0.0000 0.0000 0.0000 0.0000 -8.8860 7.1733 -18.9588 33.0757 0.0000 0.0000 -22.2849 -3.6208 -12.5441 -0.2374 0.0000 -0.0000 -11.3087 -5.6626 4.8232 35.7872 0.0000 0.0000 -18.6583 7.3959 6.2824 -4.4552 0.0000 -0.0000
